<svg xmlns="http://www.w3.org/2000/svg" xmlns:xlink="http://www.w3.org/1999/xlink" viewBox="0 0 456.67 383.2"><defs><linearGradient id="a" x1="228.33" y1="9.67" x2="228.33" y2="9.67" gradientUnits="userSpaceOnUse"><stop offset="0" stop-color="#005380"/><stop offset="1" stop-color="#0299ae"/></linearGradient><linearGradient id="c" x1="0" y1="255.12" x2="456.67" y2="255.12" xlink:href="#a"/><linearGradient id="b" x1="260.58" y1="204.85" x2="443.42" y2="204.85" gradientUnits="userSpaceOnUse"><stop offset="0" stop-color="#005380"/><stop offset="1" stop-color="#017194"/></linearGradient><linearGradient id="d" x1="12.03" y1="204.69" x2="195.23" y2="204.69" xlink:href="#b"/><linearGradient id="e" x1="14.44" y1="302.79" x2="443.5" y2="302.79" xlink:href="#b"/><linearGradient id="f" x1="48.97" y1="85.5" x2="406.47" y2="85.5" xlink:href="#b"/><linearGradient id="g" x1="69.47" y1="50.17" x2="162.97" y2="50.17" xlink:href="#b"/><linearGradient id="h" x1="177.04" y1="395.5" x2="346.35" y2="395.5" gradientTransform="matrix(1 0 0 -1 0 422)" xlink:href="#b"/><linearGradient id="i" x1="177.04" y1="372.29" x2="371.85" y2="372.29" gradientTransform="matrix(1 0 0 -1 0 422)" xlink:href="#b"/><linearGradient id="j" x1="177.04" y1="349.07" x2="365.85" y2="349.07" gradientTransform="matrix(1 0 0 -1 0 422)" xlink:href="#b"/><linearGradient id="k" x1="70.1" y1="323.67" x2="331.85" y2="323.67" gradientTransform="matrix(1 0 0 -1 0 422)" xlink:href="#b"/><linearGradient id="l" x1="70.1" y1="298.06" x2="346.35" y2="298.06" gradientTransform="matrix(1 0 0 -1 0 422)" xlink:href="#b"/><linearGradient id="m" x1="68.1" y1="274.84" x2="369.35" y2="274.84" gradientTransform="matrix(1 0 0 -1 0 422)" xlink:href="#b"/><linearGradient id="n" x1="68.1" y1="251" x2="259.35" y2="251" gradientTransform="matrix(1 0 0 -1 0 422)" xlink:href="#b"/></defs><g data-name="Layer 2"><g data-name="Capa 1" fill="none" stroke-miterlimit="10"><path d="M44.39 130.32L3 155v213.2a12 12 0 0012 12h426.67a12 12 0 0012-12V155l-42.59-25.39" stroke="url(#c)" stroke-width="6"/><path stroke="url(#b)" stroke-width="2" d="M261.03 250.2l181.94-90.7"/><path stroke="url(#d)" stroke-width="2" d="M12.47 159.5l182.32 90.37"/><path d="M443 367.5L237.36 240.93a18.28 18.28 0 00-19.25.05L15 367.5" stroke="url(#e)" stroke-width="2"/><path d="M404.47 171V12.75A10.75 10.75 0 00393.72 2h-332A10.75 10.75 0 0051 12.75V171" stroke-width="4" stroke="url(#f)"/><rect x="70.47" y="20.67" width="91.5" height="59" rx="9.58" ry="9.58" stroke="url(#g)" stroke-width="2"/><path stroke="url(#h)" stroke-width=".75" d="M177.42 20.12h168.55v12.76H177.42z"/><path stroke="url(#i)" stroke-width=".75" d="M177.42 43.33h194.05v12.76H177.42z"/><path stroke="url(#j)" stroke-width=".75" d="M177.42 66.55h188.05v12.76H177.42z"/><path stroke="url(#k)" stroke-width=".75" d="M70.47 91.95h261v12.76h-261z"/><path stroke="url(#l)" stroke-width=".75" d="M70.47 117.56h275.5v12.76H70.47z"/><path stroke="url(#m)" stroke-width=".75" d="M68.47 140.78h300.5v12.76H68.47z"/><path stroke="url(#n)" stroke-width=".75" d="M68.47 164.62h190.5v12.76H68.47z"/></g></g></svg>